{"glyphs":{"0":{"ha":854,"x_min":0,"x_max":0,"o":"m 726 1029 l 381 1029 b 238 935 319 1029 254 1000 b 17 90 210 838 17 140 b 129 0 17 28 72 0 l 474 0 b 618 94 533 0 599 33 b 838 940 643 192 838 892 b 726 1029 838 1001 781 1029 z m 635 882 l 442 147 l 214 147 l 413 882 l 635 882 z "},"1":{"ha":483,"x_min":0,"x_max":0,"o":"m 133 663 l 182 663 l 10 0 l 199 0 l 472 1029 l 308 1029 b 133 663 281 968 140 718 z "},"2":{"ha":860,"x_min":0,"x_max":0,"o":"m 844 940 b 736 1029 844 1001 790 1029 l 421 1029 b 204 668 239 1029 239 797 l 421 758 l 451 882 l 643 882 l 597 706 l 36 97 l 13 0 l 604 0 l 513 147 l 297 147 l 726 614 b 844 940 797 692 844 846 z "},"3":{"ha":843,"x_min":0,"x_max":0,"o":"m 826 942 b 714 1029 826 1001 767 1029 l 381 1029 b 164 668 199 1029 199 797 l 376 747 l 413 882 l 624 882 l 572 703 l 310 575 l 297 517 l 492 388 l 429 147 l 213 147 l 249 282 l 90 381 b 17 90 72 317 17 149 b 126 0 17 29 72 0 l 464 0 b 604 94 525 0 586 33 b 682 413 626 185 682 319 b 556 535 682 474 599 511 b 758 682 625 565 738 597 b 826 942 776 747 826 882 z "},"4":{"ha":725,"x_min":0,"x_max":0,"o":"m 29 343 l 6 249 l 371 249 l 308 0 l 456 -124 l 554 249 l 653 249 l 692 393 l 592 393 l 685 742 l 522 742 l 696 972 l 710 1029 l 535 1029 l 29 343 z m 410 393 l 265 393 l 492 697 l 410 393 z "},"5":{"ha":856,"x_min":0,"x_max":0,"o":"m 143 528 l 529 528 l 429 147 l 228 147 l 269 297 l 106 381 l 33 114 b 142 0 13 43 83 0 l 464 0 b 604 94 522 0 590 33 b 731 586 621 157 731 547 b 372 675 731 722 432 675 l 442 882 l 682 882 l 843 1029 l 293 1029 l 143 528 z "},"6":{"ha":786,"x_min":0,"x_max":0,"o":"m 771 1029 l 396 1029 b 253 935 336 1029 269 1000 l 33 114 b 143 0 13 43 85 0 l 478 0 b 614 94 535 0 599 33 b 725 513 631 151 725 478 b 351 599 725 649 406 599 l 424 882 l 678 882 l 771 1029 z m 231 147 l 310 456 l 522 456 l 439 147 l 231 147 z "},"7":{"ha":781,"x_min":0,"x_max":0,"o":"m 106 742 l 308 804 l 331 882 l 518 882 l 17 0 l 213 0 b 771 1029 292 140 768 929 l 182 1029 l 106 742 z "},"8":{"ha":846,"x_min":0,"x_max":0,"o":"m 719 1029 l 385 1029 b 239 935 322 1029 256 1000 b 163 635 218 856 163 711 b 249 540 163 581 210 563 b 100 424 188 513 119 500 b 17 90 83 358 17 147 b 126 0 17 28 72 0 l 468 0 b 613 94 529 0 596 33 b 697 431 631 163 697 372 b 606 531 697 490 653 508 b 756 646 668 556 736 572 b 832 942 771 703 832 899 b 719 1029 832 1001 772 1029 z m 213 147 l 281 401 l 417 460 l 506 410 l 433 147 l 213 147 z m 626 882 l 572 668 l 442 613 l 354 660 l 415 882 l 626 882 z "},"9":{"ha":851,"x_min":0,"x_max":0,"o":"m 13 0 l 474 0 b 613 94 533 0 596 33 b 838 940 640 188 838 892 b 725 1029 838 1001 781 1029 l 393 1029 b 247 935 332 1029 264 996 b 140 517 231 879 140 554 b 513 431 140 379 457 431 l 438 147 l 96 147 l 13 0 z m 635 882 l 554 575 l 343 575 l 422 882 l 635 882 z "},"c":{"ha":607,"x_min":0,"x_max":0,"o":"m 492 601 l 256 601 b 126 515 196 601 140 579 b 15 81 104 443 15 133 b 113 1 15 21 61 1 l 349 1 b 531 278 499 1 500 167 l 343 189 l 329 129 l 188 129 l 278 475 l 419 475 l 406 425 l 551 356 b 593 528 564 406 593 475 b 492 601 593 583 539 601 z "},"d":{"ha":725,"x_min":0,"x_max":0,"o":"m 451 601 b 94 461 331 601 138 619 b 6 117 78 399 6 167 b 157 0 6 35 86 0 b 293 11 204 0 247 6 l 290 1 l 456 1 l 714 971 l 513 835 l 451 601 z m 267 475 l 418 475 l 325 132 l 172 136 z "},"e":{"ha":610,"x_min":0,"x_max":0,"o":"m 496 601 l 256 601 b 126 515 196 601 142 579 b 15 76 107 450 15 126 b 114 1 15 18 65 1 l 419 1 l 318 128 l 185 128 l 218 256 l 481 256 l 539 293 b 600 528 556 358 600 461 b 496 601 600 583 544 601 z m 253 379 l 278 476 l 425 476 l 399 379 l 253 379 z "},"f":{"ha":654,"x_min":0,"x_max":0,"o":"m 539 799 l 650 928 l 356 928 b 161 601 188 928 196 728 l 78 601 l 43 475 l 126 475 l 11 35 l 94 -299 l 293 475 l 436 475 l 544 601 l 325 601 l 379 799 l 539 799 z "},"g":{"ha":697,"x_min":0,"x_max":0,"o":"m 518 592 b 367 603 468 596 418 603 b 167 469 283 603 192 556 b 81 121 142 379 81 214 b 358 1 81 -18 269 1 l 339 -74 l 142 -74 l 11 -200 l 361 -200 b 493 -117 411 -200 481 -171 l 685 601 l 521 601 l 518 592 z m 393 129 l 279 129 b 243 138 272 129 247 129 b 322 438 272 238 296 340 b 390 476 331 469 364 476 b 486 472 421 476 456 475 l 393 129 z "},"h":{"ha":633,"x_min":0,"x_max":0,"o":"m 521 603 b 324 592 456 603 389 596 l 381 806 l 258 967 l 6 1 l 167 1 l 293 472 l 443 472 l 329 32 l 431 -258 b 624 531 450 -168 624 486 b 521 603 624 589 568 603 z "},"i":{"ha":394,"x_min":0,"x_max":0,"o":"m 176 654 l 346 654 l 388 813 l 218 813 l 176 654 z m 6 -7 l 167 -7 l 331 601 l 167 601 l 6 -7 z "},"j":{"ha":619,"x_min":0,"x_max":0,"o":"m 400 654 l 568 654 l 610 813 l 443 813 l 400 654 z m 215 -71 l 117 -71 l 6 -200 l 231 -200 b 361 -117 293 -200 343 -178 l 553 601 l 389 601 l 215 -71 z "},"k":{"ha":635,"x_min":0,"x_max":0,"o":"m 290 443 l 386 800 l 264 971 l 6 1 l 172 1 l 228 207 l 349 -65 l 610 -276 l 349 322 l 613 549 l 626 601 l 467 601 l 290 443 z "},"l":{"ha":431,"x_min":0,"x_max":0,"o":"m 201 114 l 419 928 l 253 928 l 6 1 l 293 1 l 201 114 z "},"m":{"ha":963,"x_min":0,"x_max":0,"o":"m 847 603 b 607 588 768 603 685 593 b 532 603 583 601 558 603 b 335 592 468 603 400 596 l 340 601 l 76 601 l 151 511 l 15 1 l 179 1 l 304 472 l 456 472 l 331 1 l 493 1 l 618 472 l 769 472 l 643 1 l 810 1 b 949 531 829 69 949 492 b 847 603 949 589 894 603 z "},"n":{"ha":643,"x_min":0,"x_max":0,"o":"m 528 603 b 331 592 461 603 394 596 l 331 601 l 63 601 l 140 506 l 15 1 l 172 1 l 296 472 l 450 472 l 324 1 l 490 1 b 628 531 508 76 628 481 b 528 603 628 589 578 603 z "},"o":{"ha":624,"x_min":0,"x_max":0,"o":"m 507 601 l 256 601 b 126 515 196 601 142 579 b 15 72 106 438 15 132 b 114 1 15 17 65 1 l 364 1 b 496 88 425 1 478 25 b 610 528 513 153 610 482 b 507 601 610 583 556 601 z m 432 475 l 342 129 l 189 129 l 279 475 l 432 475 z "},"p":{"ha":692,"x_min":0,"x_max":0,"o":"m 581 603 b 381 592 513 603 450 600 l 386 601 l 113 601 l 193 500 l 11 -200 l 172 -200 l 224 1 b 581 142 349 1 539 -15 b 682 531 596 197 682 492 b 581 603 682 589 628 603 z m 356 129 l 260 129 l 349 468 l 506 468 l 421 168 b 356 129 414 138 386 129 z "},"q":{"ha":624,"x_min":0,"x_max":0,"o":"m 443 592 b 296 603 397 596 343 603 b 94 469 211 603 119 556 b 11 157 90 443 11 164 b 286 1 11 -25 147 1 l 232 -200 l 399 -200 l 613 601 l 450 601 l 443 592 z m 322 129 l 207 129 b 168 140 201 129 176 129 b 253 438 206 231 224 343 b 318 476 258 468 290 476 b 411 472 349 476 381 475 l 322 129 z "},"r":{"ha":601,"x_min":0,"x_max":0,"o":"m 490 603 b 331 593 436 603 381 596 l 333 601 l 50 601 l 138 492 l 15 1 l 172 1 l 297 469 l 414 469 l 379 340 l 563 411 b 593 531 571 450 593 493 b 490 603 593 589 538 603 z "},"s":{"ha":576,"x_min":0,"x_max":0,"o":"m 563 601 l 263 601 b 103 404 151 601 103 507 b 342 192 103 325 293 224 l 325 129 l 151 129 l 11 1 l 346 1 b 508 215 457 1 508 113 b 269 426 508 293 318 390 l 283 475 l 418 475 l 563 601 z "},"t":{"ha":668,"x_min":0,"x_max":0,"o":"m 489 475 l 658 601 l 410 601 l 425 657 l 297 804 l 244 601 l 172 601 l 8 475 l 207 475 b 107 76 192 406 107 129 b 207 1 107 18 158 1 l 578 1 l 379 129 l 283 129 l 375 475 l 489 475 z "},"u":{"ha":643,"x_min":0,"x_max":0,"o":"m 342 132 l 188 132 l 310 601 l 147 601 b 11 71 128 531 11 114 b 113 0 11 15 65 0 b 308 15 176 0 244 3 l 290 -76 l 475 11 l 632 601 l 467 601 l 342 132 z "},"v":{"ha":593,"x_min":0,"x_max":0,"o":"m 182 264 l 182 493 l 15 643 l 53 1 l 192 1 l 583 653 l 333 521 l 182 264 z "},"w":{"ha":792,"x_min":0,"x_max":0,"o":"m 457 293 l 457 601 l 318 601 l 164 293 l 164 601 l 15 601 l 15 1 l 151 1 l 310 308 l 310 -100 l 457 11 l 783 601 l 614 601 l 457 293 z "},"x":{"ha":682,"x_min":0,"x_max":0,"o":"m 379 438 l 346 546 l 151 626 l 256 317 l 21 53 l 6 1 l 161 1 l 315 182 l 365 15 l 600 -182 l 436 304 l 657 551 l 669 601 l 518 601 l 379 438 z "},"y":{"ha":608,"x_min":0,"x_max":0,"o":"m 228 264 l 228 601 l 61 601 l 94 46 l 15 -93 l 101 -229 b 601 601 272 44 436 324 l 426 601 l 228 264 z "},"z":{"ha":632,"x_min":0,"x_max":0,"o":"m 619 601 l 151 601 l 268 472 l 374 472 l 31 82 l 11 1 l 507 1 l 390 132 l 256 132 l 600 521 l 619 601 z "},"A":{"ha":660,"x_min":0,"x_max":0,"o":"m 389 985 l 464 899 l 3 -1 l 188 -1 l 288 203 l 478 203 l 478 -1 l 642 -253 l 642 985 l 389 985 z m 500 343 l 354 343 l 500 642 l 500 343 z "},"B":{"ha":829,"x_min":0,"x_max":0,"o":"m 710 985 l 164 985 l 246 885 l 13 0 l 468 0 b 606 90 529 0 590 28 b 692 429 625 163 692 365 b 626 508 692 472 663 492 b 739 606 678 529 725 547 b 817 906 756 660 817 860 b 710 985 817 961 758 985 z m 433 140 l 228 140 l 308 443 l 442 443 l 507 406 l 433 140 z m 564 626 l 457 583 l 344 583 l 421 844 l 621 844 l 564 626 z "},"C":{"ha":808,"x_min":0,"x_max":0,"o":"m 793 903 b 688 985 793 958 736 985 l 140 985 l 219 882 b 13 85 204 818 13 135 b 122 0 13 28 69 0 l 443 0 b 654 367 621 0 621 242 l 444 269 l 410 140 l 204 140 l 393 844 l 601 844 l 568 722 l 731 640 b 793 903 747 710 793 835 z "},"D":{"ha":824,"x_min":0,"x_max":0,"o":"m 586 985 l 119 985 l 235 843 l 13 0 l 343 0 b 647 192 467 0 614 63 b 810 826 685 331 810 703 b 586 985 810 943 685 985 z m 331 140 l 228 140 l 421 844 l 546 844 b 625 804 572 844 625 838 b 472 218 625 776 486 281 b 331 140 456 157 388 140 z "},"E":{"ha":761,"x_min":0,"x_max":0,"o":"m 129 985 l 238 851 l 13 0 l 575 0 l 528 140 l 228 140 l 306 431 l 401 431 l 529 569 l 343 569 l 417 844 l 624 844 l 750 985 l 129 985 z "},"F":{"ha":754,"x_min":0,"x_max":0,"o":"m 185 985 l 249 906 l 13 0 l 196 0 l 303 422 l 417 422 l 540 565 l 343 565 l 417 844 l 624 844 l 747 985 l 185 985 z "},"G":{"ha":817,"x_min":0,"x_max":0,"o":"m 804 903 b 696 985 804 961 747 985 l 149 985 l 228 889 b 13 83 206 808 13 118 b 126 0 13 24 79 0 l 456 0 b 590 90 511 0 575 29 l 706 529 l 389 529 l 354 388 l 486 388 l 421 140 l 208 140 l 396 844 l 610 844 l 554 640 l 738 640 b 804 903 758 710 804 835 z "},"H":{"ha":881,"x_min":0,"x_max":0,"o":"m 579 583 l 344 583 l 456 985 l 169 985 l 247 892 l 13 0 l 196 0 l 308 442 l 540 442 l 424 0 l 607 0 l 868 985 l 685 985 l 579 583 z "},"I":{"ha":464,"x_min":0,"x_max":0,"o":"m 156 985 l 242 879 l 10 0 l 193 0 l 456 985 l 156 985 z "},"J":{"ha":811,"x_min":0,"x_max":0,"o":"m 513 985 l 590 892 l 389 140 l 214 140 l 275 367 l 96 367 l 28 106 b 133 0 7 39 79 0 l 422 0 b 556 90 483 0 543 28 l 800 985 l 513 985 z "},"K":{"ha":956,"x_min":0,"x_max":0,"o":"m 368 668 l 451 985 l 174 985 l 246 893 l 10 0 l 193 0 l 283 365 l 472 -129 l 714 -247 l 429 501 l 943 1079 l 732 1079 l 368 668 z "},"L":{"ha":676,"x_min":0,"x_max":0,"o":"m 456 985 l 151 985 l 243 871 l 13 0 l 483 0 l 667 140 l 228 140 l 456 985 z "},"M":{"ha":1043,"x_min":0,"x_max":0,"o":"m 543 456 l 506 985 l 214 985 l 310 868 l 17 -254 l 258 0 l 378 460 l 413 85 l 485 85 l 711 444 l 597 0 l 772 0 l 1031 985 l 865 985 l 543 456 z "},"N":{"ha":939,"x_min":0,"x_max":0,"o":"m 601 432 l 478 985 l 224 985 l 310 879 l 13 -247 l 231 -68 l 404 565 l 535 0 l 667 0 l 928 985 l 750 985 l 601 432 z "},"O":{"ha":843,"x_min":0,"x_max":0,"o":"m 718 985 l 135 985 l 224 878 b 17 85 199 789 17 129 b 126 0 17 24 72 0 l 478 0 b 613 90 533 0 597 29 b 826 903 635 185 826 854 b 718 985 826 961 771 985 z m 443 140 l 208 140 l 396 844 l 632 844 l 443 140 z "},"P":{"ha":826,"x_min":0,"x_max":0,"o":"m 706 985 l 151 985 l 243 871 l 17 0 l 196 0 l 289 365 b 697 456 361 365 660 315 b 815 903 718 525 815 854 b 706 985 815 961 758 985 z m 529 506 l 326 506 l 421 844 l 621 844 l 529 506 z "},"Q":{"ha":838,"x_min":0,"x_max":0,"o":"m 714 985 l 131 985 l 218 878 b 10 81 196 790 10 119 b 122 0 10 24 78 0 l 472 0 b 607 90 531 0 592 28 b 824 906 632 176 824 865 b 714 985 824 961 761 985 z m 439 140 l 206 140 l 394 844 l 626 844 l 439 140 z m 429 -146 l 658 -308 l 533 214 l 351 214 z "},"R":{"ha":838,"x_min":0,"x_max":0,"o":"m 715 985 l 160 985 l 243 882 l 10 0 l 193 0 l 329 529 l 442 -7 l 678 -247 l 529 439 l 554 438 b 726 529 618 438 706 456 b 824 906 742 583 824 868 b 715 985 824 961 765 985 z m 556 579 l 343 579 l 415 844 l 626 844 l 556 579 z "},"S":{"ha":900,"x_min":0,"x_max":0,"o":"m 888 985 l 206 985 l 297 871 b 253 678 292 843 253 706 b 531 317 253 596 478 378 l 483 140 l 94 140 l 13 0 l 518 0 b 653 90 579 0 635 28 b 714 332 658 114 714 310 b 433 696 714 415 490 632 l 474 844 l 801 844 l 888 985 z "},"T":{"ha":731,"x_min":0,"x_max":0,"o":"m 83 731 l 206 844 l 308 844 l 17 -247 l 267 0 l 490 844 l 624 844 l 657 739 l 722 985 l 151 985 l 83 731 z "},"U":{"ha":860,"x_min":0,"x_max":0,"o":"m 433 140 l 210 140 l 438 985 l 164 985 l 231 900 b 17 83 218 843 17 125 b 129 0 17 24 81 0 l 468 0 b 604 90 522 0 590 35 l 844 985 l 663 985 l 433 140 z "},"V":{"ha":767,"x_min":0,"x_max":0,"o":"m 268 985 l 17 985 l 97 850 l 97 -1 l 261 -1 l 758 985 l 572 985 l 268 368 z "},"W":{"ha":1029,"x_min":0,"x_max":0,"o":"m 613 472 l 649 985 l 494 985 l 258 478 l 315 985 l 17 985 l 122 854 l 51 -1 l 203 -1 l 460 556 l 421 -1 l 568 -1 l 1018 985 l 832 985 l 613 472 z "},"X":{"ha":903,"x_min":0,"x_max":0,"o":"m 501 692 l 456 985 l 192 985 l 292 863 b 361 511 315 747 338 626 l 18 51 l 7 0 l 185 0 l 407 325 l 468 -7 l 703 -247 b 554 500 653 1 601 249 l 871 933 l 888 985 l 714 985 l 501 692 z "},"Y":{"ha":744,"x_min":0,"x_max":0,"o":"m 308 596 l 267 985 l 17 985 l 96 888 l 168 394 l 64 0 l 247 0 b 343 376 281 125 310 249 b 719 933 358 422 682 863 b 736 985 726 947 731 969 l 561 985 l 308 596 z "},"Z":{"ha":843,"x_min":0,"x_max":0,"o":"m 826 985 l 97 985 l 272 844 l 565 844 l 35 92 l 17 0 l 726 0 l 597 140 l 267 140 l 801 894 l 826 985 z "},"a":{"ha":618,"x_min":0,"x_max":0,"o":"m 500 601 l 263 601 b 126 500 176 601 156 571 l 222 379 b 65 293 151 379 86 374 b 11 71 46 224 11 142 b 113 0 11 15 65 0 b 318 15 182 0 253 8 l 444 -112 b 603 528 467 -31 603 481 b 500 601 603 583 549 601 z m 431 476 l 406 379 l 258 379 l 285 476 l 431 476 z m 374 258 l 340 132 l 183 132 l 218 258 l 374 258 z "}," ":{"ha":246,"x_min":0,"x_max":0,"o":""},"b":{"ha":640,"x_min":0,"x_max":0,"o":"m 528 603 b 331 592 460 603 394 600 l 379 767 l 269 988 l 8 1 l 310 1 b 531 142 400 1 506 50 b 632 531 544 197 632 492 b 528 603 632 589 576 603 z m 303 129 l 207 129 l 297 468 l 450 468 l 368 168 b 303 129 358 136 333 129 z "}}}
